<?xml version="1.0" encoding="iso-8859-1"?>
<svg height="800px" width="800px" version="1.1" xmlns="http://www.w3.org/2000/svg" xmlns:xlink="http://www.w3.org/1999/xlink" viewBox="0 0 512 512" xml:space="preserve">
<g>
	<path style="opacity:0.06;fill:#040000;" d="M256.12,511.759c65.556,0,131.113-24.952,181.02-74.859
		c99.814-99.814,99.814-262.225,0-362.038C387.232,24.953,321.676,0,256.12,0L256.12,511.759z"/>
	<g>
		<path style="fill:#D8D8D8;" d="M256,512C114.841,512,0,397.159,0,256S114.841,0,256,0s256,114.841,256,256S397.159,512,256,512z"/>

		<g style="opacity:0.2;">
			<path style="fill:#FFFFFF;" d="M344,145h-16c-3.6,0-6.9,1.9-8.7,5L256,258.3L192.7,150c-1.8-3.1-5.1-5-8.7-5h-16
				c-5.5,0-10,4.5-10,10v202c0,5.5,4.5,10,10,10h22c5.5,0,10-4.5,10-10V230l42,72c1.8,3.1,5.1,5,8.7,5s6.9-1.9,8.7-5l42-72v127
				c0,5.5,4.5,10,10,10h22c5.5,0,10-4.5,10-10V155C354,149.5,349.5,145,344,145z"/>
		</g>

		<g style="opacity:0.5;">
			<path style="fill:#8A8A8A;" d="M256.001,472.633c-119.452,0-216.633-97.181-216.633-216.633s97.18-216.633,216.633-216.633
				c119.452,0,216.633,97.18,216.633,216.633S375.453,472.633,256.001,472.633z M256.001,94.604
				c-88.994,0-161.396,72.402-161.396,161.396s72.402,161.396,161.396,161.396c88.994,0,161.396-72.402,161.396-161.396
				S344.994,94.604,256.001,94.604z"/>
		</g>

		<g>
			<path style="fill:#D8D8D8;" d="M184,82.265c0.458,1.164,0.856,2.222,1.187,3.17c0.334,0.946,0.576,1.846,0.725,2.697
				c0.15,0.847,0.19,1.669,0.117,2.461c-0.069,0.789-0.291,1.617-0.664,2.474c-0.497,1.144-1.183,2.144-2.057,3.002
				c-0.874,0.854-2.02,1.563-3.434,2.118c-1.411,0.555-2.736,0.819-3.972,0.791c-1.236-0.028-2.425-0.287-3.572-0.786
				c-0.855-0.376-1.579-0.827-2.17-1.359c-0.593-0.529-1.119-1.161-1.572-1.89c-0.461-0.729-0.888-1.553-1.29-2.473
				c-0.405-0.924-0.833-1.965-1.291-3.129c-0.456-1.162-0.851-2.217-1.183-3.166c-0.336-0.95-0.582-1.846-0.745-2.692
				c-0.16-0.841-0.208-1.661-0.134-2.453c0.069-0.791,0.293-1.617,0.664-2.474c0.499-1.144,1.189-2.146,2.077-3.009
				c0.885-0.861,2.034-1.568,3.45-2.123c1.414-0.558,2.733-0.819,3.957-0.786c1.221,0.031,2.408,0.295,3.552,0.791
				c0.857,0.373,1.581,0.829,2.172,1.359c0.591,0.532,1.118,1.161,1.59,1.884c0.469,0.724,0.905,1.548,1.307,2.466
				C183.114,80.06,183.547,81.104,184,82.265z M179.247,84.134c-0.458-1.162-0.86-2.116-1.204-2.861
				c-0.347-0.745-0.665-1.35-0.954-1.817c-0.289-0.467-0.566-0.825-0.836-1.07c-0.27-0.253-0.567-0.459-0.893-0.619
				c-0.495-0.255-1.047-0.396-1.653-0.437c-0.608-0.039-1.241,0.074-1.902,0.336c-0.66,0.257-1.205,0.611-1.622,1.05
				c-0.419,0.444-0.736,0.926-0.947,1.457c-0.128,0.343-0.208,0.697-0.233,1.062c-0.028,0.365,0.011,0.817,0.117,1.356
				c0.108,0.538,0.294,1.195,0.559,1.973c0.268,0.778,0.629,1.749,1.088,2.912c0.456,1.162,0.851,2.119,1.187,2.867
				c0.334,0.753,0.645,1.354,0.929,1.81s0.559,0.807,0.826,1.055c0.272,0.252,0.569,0.454,0.898,0.618
				c0.514,0.241,1.08,0.39,1.694,0.438c0.611,0.05,1.246-0.056,1.91-0.318c0.659-0.26,1.198-0.613,1.612-1.068
				c0.412-0.453,0.715-0.941,0.904-1.461c0.13-0.341,0.208-0.695,0.236-1.06c0.026-0.367-0.009-0.813-0.112-1.34
				c-0.101-0.525-0.279-1.177-0.534-1.961C180.059,86.273,179.704,85.297,179.247,84.134z"/>
			<path style="fill:#D8D8D8;" d="M208.075,89.001l-14.273-12.715l4.284,15.481l-4.922,1.363l-6.984-25.224l4.395-1.215
				l14.263,12.682l-4.276-15.446l4.927-1.361l6.981,25.22L208.075,89.001z"/>
			<path style="fill:#D8D8D8;" d="M217.723,86.957l-3.763-25.9l17.059-2.478l0.655,4.511l-12.002,1.744l0.88,6.072l10.224-1.482
				l0.652,4.506l-10.219,1.486l0.915,6.295l12.004-1.744l0.657,4.508L217.723,86.957z"/>
			<path style="fill:#D8D8D8;" d="M266.141,65.704c-0.005,1.105-0.205,2.15-0.602,3.141c-0.396,0.993-0.962,1.859-1.7,2.604
				c-0.738,0.744-1.649,1.33-2.728,1.753c-1.081,0.428-2.293,0.637-3.638,0.632l-5.039-0.022l-0.038,9.852l-5.108-0.018
				l0.101-26.174l10.144,0.04c1.348,0.005,2.562,0.224,3.64,0.657c1.076,0.431,1.979,1.026,2.712,1.774
				c0.731,0.752,1.293,1.624,1.68,2.617C265.954,63.557,266.144,64.599,266.141,65.704z M261.031,65.686
				c0.006-1.078-0.329-1.95-1-2.613c-0.671-0.665-1.596-1.002-2.771-1.003l-4.78-0.02l-0.026,7.165l4.78,0.02
				c1.173,0.004,2.101-0.316,2.776-0.962C260.685,67.627,261.027,66.764,261.031,65.686z"/>
			<path style="fill:#D8D8D8;" d="M269.683,84.046l2.934-26.005l17.129,1.93l-0.51,4.529l-12.054-1.357l-0.686,6.1l10.263,1.155
				l-0.512,4.531l-10.264-1.158l-0.712,6.319l12.054,1.357l-0.51,4.531L269.683,84.046z"/>
			<path style="fill:#D8D8D8;" d="M306.119,90.148l-6.472-17.989l-3.624,15.652l-4.979-1.154l5.906-25.498l4.439,1.029
				l6.484,17.953l3.615-15.613l4.979,1.154l-5.904,25.496L306.119,90.148z"/>
			<path style="fill:#D8D8D8;" d="M330.211,98.029l-4.201-18.647l-5.531,15.08l-4.798-1.762l9.015-24.567l4.277,1.571l4.212,18.615
				l5.521-15.048l4.796,1.762l-9.015,24.572L330.211,98.029z"/>
			<path style="fill:#D8D8D8;" d="M353.133,96.742l-4.795,9.6l-4.539-2.264l4.795-9.604l-0.141-17.323l4.964,2.478l-0.337,11.622
				l9.022-7.288l4.964,2.478L353.133,96.742z"/>
		</g>

		<g>
			<path style="fill:#D8D8D8;" d="M331.201,432.648c-0.458-1.165-0.856-2.222-1.187-3.17c-0.334-0.946-0.576-1.846-0.725-2.697
				c-0.149-0.846-0.19-1.669-0.117-2.46c0.069-0.789,0.291-1.617,0.664-2.475c0.497-1.144,1.183-2.144,2.057-3.002
				c0.874-0.854,2.02-1.563,3.434-2.118c1.412-0.555,2.736-0.819,3.972-0.791c1.237,0.028,2.425,0.287,3.572,0.786
				c0.855,0.376,1.579,0.827,2.17,1.359c0.593,0.529,1.118,1.161,1.572,1.89c0.461,0.729,0.888,1.553,1.29,2.473
				c0.405,0.924,0.832,1.965,1.291,3.129c0.456,1.162,0.851,2.217,1.183,3.165c0.336,0.95,0.582,1.846,0.745,2.692
				c0.16,0.841,0.208,1.661,0.134,2.453c-0.069,0.792-0.293,1.617-0.664,2.474c-0.499,1.144-1.189,2.146-2.077,3.01
				c-0.885,0.861-2.034,1.568-3.45,2.123c-1.414,0.558-2.733,0.819-3.957,0.786c-1.221-0.031-2.408-0.294-3.552-0.792
				c-0.857-0.373-1.582-0.829-2.172-1.359c-0.591-0.532-1.119-1.161-1.59-1.884c-0.469-0.724-0.905-1.548-1.307-2.466
				C332.087,434.852,331.655,433.808,331.201,432.648z M335.954,430.778c0.458,1.162,0.86,2.116,1.204,2.861
				c0.347,0.745,0.665,1.35,0.954,1.817c0.289,0.467,0.566,0.825,0.836,1.071c0.27,0.253,0.567,0.459,0.893,0.619
				c0.495,0.256,1.047,0.396,1.653,0.437c0.608,0.039,1.241-0.073,1.902-0.336c0.659-0.257,1.204-0.611,1.622-1.05
				c0.42-0.444,0.736-0.926,0.947-1.457c0.128-0.343,0.208-0.697,0.234-1.062c0.028-0.365-0.011-0.817-0.117-1.355
				c-0.108-0.539-0.294-1.195-0.559-1.973c-0.267-0.778-0.629-1.749-1.088-2.912c-0.456-1.162-0.851-2.119-1.187-2.867
				c-0.334-0.753-0.645-1.353-0.929-1.81c-0.284-0.456-0.559-0.807-0.826-1.055c-0.272-0.252-0.569-0.454-0.898-0.618
				c-0.514-0.241-1.08-0.39-1.694-0.438c-0.611-0.05-1.246,0.056-1.91,0.318c-0.659,0.26-1.198,0.613-1.612,1.068
				c-0.412,0.453-0.715,0.941-0.905,1.461c-0.13,0.341-0.208,0.695-0.236,1.06c-0.026,0.367,0.009,0.813,0.112,1.34
				c0.101,0.525,0.279,1.177,0.534,1.961C335.143,428.639,335.498,429.616,335.954,430.778z"/>
			<path style="fill:#D8D8D8;" d="M307.126,425.912l14.273,12.715l-4.284-15.481l4.922-1.363l6.984,25.224l-4.395,1.215
				l-14.263-12.682l4.276,15.446l-4.927,1.361l-6.981-25.22L307.126,425.912z"/>
			<path style="fill:#D8D8D8;" d="M297.479,427.955l3.763,25.9l-17.059,2.478l-0.655-4.511l12.002-1.744l-0.88-6.072l-10.224,1.482
				l-0.652-4.506l10.219-1.486l-0.915-6.295l-12.004,1.744l-0.657-4.508L297.479,427.955z"/>
			<path style="fill:#D8D8D8;" d="M249.06,449.208c0.005-1.105,0.205-2.15,0.602-3.141c0.396-0.993,0.962-1.859,1.7-2.603
				c0.738-0.744,1.649-1.33,2.728-1.753c1.081-0.428,2.293-0.637,3.638-0.632l5.038,0.022l0.038-9.852l5.108,0.018l-0.101,26.174
				l-10.144-0.04c-1.348-0.005-2.562-0.224-3.64-0.657c-1.076-0.431-1.979-1.026-2.712-1.774c-0.731-0.752-1.293-1.624-1.68-2.617
				C249.248,451.355,249.058,450.313,249.06,449.208z M254.171,449.226c-0.006,1.078,0.329,1.95,1,2.613
				c0.671,0.665,1.596,1.002,2.771,1.003l4.78,0.02l0.026-7.165l-4.78-0.02c-1.172-0.004-2.101,0.316-2.776,0.962
				C254.516,447.285,254.174,448.148,254.171,449.226z"/>
			<path style="fill:#D8D8D8;" d="M245.519,430.866l-2.934,26.005l-17.129-1.93l0.51-4.529l12.054,1.357l0.686-6.1l-10.264-1.155
				l0.512-4.531l10.264,1.158l0.712-6.319l-12.054-1.357l0.51-4.531L245.519,430.866z"/>
			<path style="fill:#D8D8D8;" d="M209.083,424.764l6.472,17.989l3.624-15.652l4.979,1.154l-5.906,25.498l-4.439-1.029
				l-6.484-17.953l-3.615,15.613l-4.979-1.154l5.904-25.496L209.083,424.764z"/>
			<path style="fill:#D8D8D8;" d="M184.991,416.883l4.2,18.647l5.531-15.08l4.798,1.762l-9.015,24.567l-4.277-1.571l-4.213-18.616
				l-5.521,15.048l-4.796-1.762l9.015-24.572L184.991,416.883z"/>
			<path style="fill:#D8D8D8;" d="M162.068,418.17l4.795-9.6l4.539,2.264l-4.795,9.604l0.141,17.323l-4.964-2.478l0.337-11.622
				l-9.022,7.288l-4.964-2.478L162.068,418.17z"/>
		</g>

		<g>
			<path style="fill:#8A8A8A;" d="M344,145h-16c-3.6,0-6.9,1.9-8.7,5L256,258.3L192.7,150c-1.8-3.1-5.1-5-8.7-5h-16
				c-5.5,0-10,4.5-10,10v202c0,5.5,4.5,10,10,10h22c5.5,0,10-4.5,10-10V230l42,72c1.8,3.1,5.1,5,8.7,5s6.9-1.9,8.7-5l42-72v127
				c0,5.5,4.5,10,10,10h22c5.5,0,10-4.5,10-10V155C354,149.5,349.5,145,344,145z"/>
		</g>

		<g>
			<circle style="fill:#D8D8D8;" cx="65.963" cy="256" r="9.56"/>
			<circle style="fill:#D8D8D8;" cx="444.121" cy="256" r="9.56"/>
		</g>
	</g>
	<path style="opacity:0.06;fill:#040000;" d="M256.12,511.759c65.556,0,131.113-24.952,181.02-74.859
		c99.814-99.814,99.814-262.225,0-362.038C387.232,24.953,321.676,0,256.12,0L256.12,511.759z"/>
</g>
</svg>
